<svg id="kalimba-logo" enable-background="new 0 0 512 512" height="512" viewBox="0 0 512 512" width="512" fill="#515f8a" xmlns="http://www.w3.org/2000/svg"><g><path d="m436.75 0h-361.5c-8.284 0-15 6.716-15 15v482c0 8.284 6.716 15 15 15h361.5c8.284 0 15-6.716 15-15v-482c0-8.284-6.716-15-15-15zm-346.5 150.625v-30.25h331.5v30.25zm331.5 331.375h-331.5v-301.375h30.25v45.25c0 8.284 6.716 15 15 15s15-6.716 15-15v-45.25h30.25v75.375c0 8.284 6.716 15 15 15s15-6.716 15-15v-75.375h30.25v105.5c0 8.284 6.716 15 15 15s15-6.716 15-15v-105.5h30.25v75.375c0 8.284 6.716 15 15 15s15-6.716 15-15v-75.375h30.25v45.25c0 8.284 6.716 15 15 15s15-6.716 15-15v-45.25h30.25zm-30.25-391.625v-15.125c0-8.284-6.716-15-15-15s-15 6.716-15 15v15.125h-30.25v-15.125c0-8.284-6.716-15-15-15s-15 6.716-15 15v15.125h-30.25v-15.125c0-8.284-6.716-15-15-15s-15 6.716-15 15v15.125h-30.25v-15.125c0-8.284-6.716-15-15-15s-15 6.716-15 15v15.125h-30.25v-15.125c0-8.284-6.716-15-15-15s-15 6.716-15 15v15.125h-30.25v-60.375h331.5v60.375z"/><path d="m256 331.375c-33.188 0-60.188 27-60.188 60.188s27 60.188 60.188 60.188 60.188-27 60.188-60.188-27-60.188-60.188-60.188zm0 90.375c-16.646 0-30.188-13.542-30.188-30.188s13.542-30.188 30.188-30.188 30.188 13.542 30.188 30.188-13.542 30.188-30.188 30.188z"/></g></svg>